<svg width="39" height="17" viewBox="0 0 39 17" fill="none" xmlns="http://www.w3.org/2000/svg">
<path d="M7.76704 2.63795C7.54419 2.91897 7.25954 3.14483 6.93522 3.29797C6.6109 3.45111 6.25564 3.52741 5.89704 3.52095C5.87429 3.16975 5.92183 2.81755 6.03687 2.48495C6.15192 2.15235 6.33216 1.84604 6.56704 1.58395C7.03747 1.03756 7.70121 0.694574 8.41904 0.626953C8.47102 1.35651 8.2372 2.07768 7.76704 2.63795ZM8.41204 3.66195C7.38104 3.60295 6.49804 4.24795 6.01204 4.24795C5.52604 4.24795 4.76604 3.69195 3.94904 3.70595C3.41697 3.71885 2.89754 3.87084 2.44244 4.14681C1.98735 4.42278 1.61245 4.8131 1.35504 5.27895C0.243042 7.19295 1.06704 10.027 2.14204 11.585C2.66904 12.357 3.29904 13.202 4.13004 13.173C4.91604 13.143 5.23004 12.661 6.17804 12.661C7.12604 12.661 7.41004 13.173 8.24104 13.161C9.10204 13.146 9.64104 12.389 10.17 11.618C10.542 11.0721 10.8321 10.4748 11.031 9.84495C10.5351 9.62783 10.1127 9.27159 9.81511 8.81936C9.51747 8.36714 9.35732 7.83833 9.35404 7.29695C9.36104 6.81675 9.48907 6.34607 9.72627 5.92848C9.96347 5.51089 10.3022 5.15989 10.711 4.90795C10.4498 4.53684 10.1063 4.23123 9.70725 4.01507C9.30822 3.7989 8.86457 3.67804 8.41104 3.66195H8.41204ZM14.367 1.50995V13.077H16.167V9.12695H18.652C19.1625 9.15438 19.673 9.07491 20.1509 8.89363C20.6289 8.71235 21.0637 8.43325 21.4275 8.07421C21.7914 7.71517 22.0762 7.28411 22.2638 6.80862C22.4514 6.33313 22.5377 5.8237 22.517 5.31295C22.5417 4.80689 22.4601 4.30127 22.2775 3.82867C22.0948 3.35606 21.8152 2.92695 21.4567 2.56896C21.0982 2.21098 20.6686 1.93207 20.1957 1.75019C19.7228 1.56831 19.2171 1.48749 18.711 1.51295H14.367V1.50995ZM16.167 3.02695H18.237C18.5555 2.98292 18.8798 3.01059 19.1861 3.10794C19.4925 3.20529 19.7733 3.36986 20.0079 3.58963C20.2425 3.8094 20.4251 4.07881 20.5422 4.37818C20.6594 4.67755 20.7082 4.99931 20.685 5.31995C20.7082 5.64161 20.6592 5.96437 20.5416 6.26466C20.4241 6.56495 20.2409 6.83518 20.0055 7.05561C19.7701 7.27605 19.4885 7.44111 19.1811 7.53875C18.8738 7.63639 18.5485 7.66413 18.229 7.61995H16.167V3.02695ZM25.797 13.169C26.3304 13.1835 26.8579 13.0541 27.324 12.7944C27.7902 12.5347 28.1777 12.1542 28.446 11.693H28.483V13.077H30.145V7.31895C30.145 5.64995 28.81 4.57395 26.754 4.57395C24.847 4.57395 23.438 5.66495 23.386 7.16295H25.003C25.0963 6.79425 25.3198 6.47171 25.6322 6.25485C25.9447 6.03798 26.325 5.94141 26.703 5.98295C27.803 5.98295 28.417 6.49495 28.417 7.43695V8.07495L26.176 8.20895C24.091 8.33495 22.963 9.18795 22.963 10.672C22.9679 11.0274 23.0472 11.378 23.1958 11.701C23.3444 12.0239 23.559 12.3122 23.8258 12.5472C24.0926 12.7821 24.4057 12.9586 24.7449 13.0652C25.084 13.1717 25.4418 13.2061 25.795 13.166L25.797 13.169ZM26.279 11.796C25.322 11.796 24.714 11.336 24.714 10.631C24.714 9.90395 25.3 9.48095 26.42 9.41395L28.42 9.28795V9.94095C28.4079 10.2057 28.342 10.4652 28.2262 10.7037C28.1104 10.9421 27.9473 11.1545 27.7468 11.3278C27.5462 11.5011 27.3125 11.6317 27.0598 11.7117C26.8071 11.7917 26.5408 11.8193 26.277 11.793L26.279 11.796ZM32.361 16.227C34.112 16.227 34.936 15.559 35.655 13.534L38.808 4.68995H36.983L34.867 11.519H34.83L32.717 4.68495H30.84L33.882 13.106L33.719 13.618C33.6631 13.9714 33.4764 14.2909 33.196 14.5131C32.9156 14.7354 32.5619 14.8442 32.205 14.818C32.064 14.818 31.79 14.803 31.678 14.788V16.175C31.9042 16.2081 32.1324 16.2254 32.361 16.227Z" fill="#878787"/>
</svg>
