<svg width="41" height="14" viewBox="0 0 41 14" fill="none" xmlns="http://www.w3.org/2000/svg">
<path d="M2.425 13.121H1.196L2.218 9.15599H0.802002L1.023 8.30599H5.09L4.868 9.15599H3.448L2.425 13.121ZM6.625 11.273L6.146 13.121H4.922L6.166 8.30599H7.611C8.11156 8.27165 8.61088 8.38873 9.044 8.64199C9.20094 8.75196 9.32727 8.90011 9.41108 9.07245C9.49489 9.24479 9.53341 9.43563 9.523 9.62699C9.52903 9.95655 9.40965 10.2761 9.189 10.521C8.92689 10.7933 8.59299 10.9857 8.226 11.076L9.277 13.122H7.94L7.107 11.274H6.628L6.625 11.273ZM6.838 10.442H7.152C7.43791 10.4579 7.72249 10.3927 7.973 10.254C8.06872 10.1934 8.14647 10.1084 8.19818 10.0076C8.24988 9.90683 8.27364 9.79405 8.267 9.68099C8.27114 9.60356 8.25572 9.52633 8.22216 9.45643C8.18861 9.38653 8.138 9.32619 8.075 9.28099C7.89274 9.17768 7.68395 9.13071 7.475 9.14599H7.175L6.836 10.446L6.838 10.442ZM13.321 11.974H11.421L10.729 13.12H9.441L12.524 8.28499H14.024L14.616 13.12H13.416L13.316 11.974H13.321ZM13.261 11.118L13.161 9.96499C13.1337 9.67699 13.1203 9.39932 13.121 9.13199V9.01299C12.9903 9.29958 12.8437 9.57868 12.682 9.84899L11.925 11.117H13.264L13.261 11.118ZM20.336 13.118H18.963L17.53 9.47499H17.502L17.486 9.57999C17.4 10.054 17.3117 10.4777 17.221 10.851L16.637 13.117H15.533L16.777 8.30199H18.215L19.584 11.849H19.602C19.634 11.683 19.686 11.444 19.76 11.134C19.834 10.824 20.074 9.87999 20.485 8.30199H21.585L20.341 13.116L20.336 13.118ZM25.556 11.695C25.5598 11.913 25.5064 12.1281 25.4012 12.319C25.2959 12.5099 25.1424 12.6699 24.956 12.783C24.4692 13.0734 23.9071 13.2126 23.341 13.183C22.8459 13.2033 22.3534 13.1002 21.908 12.883V11.983C22.3571 12.2039 22.8487 12.3253 23.349 12.339C23.5903 12.3507 23.8308 12.3026 24.049 12.199C24.1235 12.1661 24.1871 12.1126 24.2321 12.0447C24.2771 11.9768 24.3017 11.8974 24.303 11.816C24.3047 11.7298 24.2858 11.6445 24.248 11.567C24.2089 11.4915 24.1564 11.4237 24.093 11.367C23.9342 11.2437 23.7672 11.1314 23.593 11.031C23.2905 10.872 23.0242 10.6521 22.811 10.385C22.6646 10.1854 22.5855 9.94449 22.585 9.69699C22.5823 9.42333 22.6702 9.15647 22.835 8.93799C23.019 8.70235 23.2648 8.52235 23.545 8.41799C23.8835 8.28849 24.2437 8.22534 24.606 8.23199C25.1565 8.22513 25.7021 8.33629 26.206 8.55799L25.767 9.32599C25.399 9.17385 25.0061 9.09112 24.608 9.08199C24.4144 9.07334 24.2229 9.12506 24.06 9.22999C23.994 9.27145 23.9397 9.32919 23.9024 9.39765C23.8651 9.46612 23.846 9.54303 23.847 9.62099C23.8452 9.75062 23.8927 9.8761 23.98 9.97199C24.1585 10.135 24.3608 10.2699 24.58 10.372C24.8613 10.5125 25.1097 10.7108 25.309 10.954C25.4717 11.1667 25.5574 11.4283 25.552 11.696L25.556 11.695ZM27.763 13.118H26.538L27.782 8.30299H31.06L30.843 9.13999H28.797L28.478 10.382H30.378L30.152 11.215H28.252L27.765 13.115L27.763 13.118ZM34.407 13.118H31.121L32.365 8.30299H35.659L35.442 9.13999H33.38L33.11 10.197H35.031L34.81 11.033H32.889L32.567 12.275H34.629L34.412 13.119L34.407 13.118ZM37.502 11.274L37.023 13.122H35.797L37.041 8.30699H38.486C38.9866 8.27265 39.4859 8.38973 39.919 8.64299C40.076 8.7529 40.2024 8.90103 40.2862 9.07339C40.37 9.24574 40.4085 9.43662 40.398 9.62799C40.404 9.95756 40.2846 10.2771 40.064 10.522C39.8019 10.7943 39.468 10.9867 39.101 11.077L40.152 13.123H38.815L37.982 11.275H37.502V11.274ZM37.715 10.443H38.029C38.3149 10.4589 38.5995 10.3937 38.85 10.255C38.9457 10.1944 39.0235 10.1094 39.0752 10.0086C39.1269 9.90783 39.1506 9.79505 39.144 9.68199C39.1481 9.60456 39.1327 9.52734 39.0992 9.45743C39.0656 9.38753 39.015 9.32719 38.952 9.28199C38.7697 9.17868 38.5609 9.13171 38.352 9.14699H38.052L37.713 10.447L37.715 10.443ZM19.109 0.832989C19.5915 0.803405 20.0735 0.898089 20.509 1.10799C20.6569 1.18663 20.7796 1.30537 20.8631 1.45059C20.9466 1.5958 20.9875 1.76161 20.981 1.92899C20.9859 2.08376 20.9586 2.23786 20.9009 2.38157C20.8433 2.52528 20.7565 2.65549 20.646 2.76399C20.3806 3.00313 20.0484 3.15528 19.694 3.19999V3.21999C19.9353 3.26426 20.1587 3.37749 20.337 3.54599C20.4167 3.62554 20.4792 3.72068 20.5205 3.82547C20.5618 3.93025 20.581 4.04243 20.577 4.15499C20.5865 4.38975 20.5347 4.62294 20.4267 4.8316C20.3187 5.04026 20.1582 5.21719 19.961 5.34499C19.4465 5.65078 18.8526 5.7963 18.255 5.76299H16.155L17.392 0.832989H19.11H19.109ZM17.592 4.89899H18.317C18.5787 4.91264 18.8379 4.84258 19.057 4.69899C19.1432 4.63804 19.2129 4.55657 19.2597 4.46193C19.3064 4.3673 19.3289 4.26249 19.325 4.15699C19.325 3.79299 19.08 3.60999 18.587 3.60999H17.922L17.592 4.89899ZM18.129 2.78499H18.729C18.9837 2.80215 19.238 2.74519 19.461 2.62099C19.5391 2.5707 19.6027 2.50088 19.6455 2.41844C19.6883 2.33599 19.7088 2.2438 19.705 2.15099C19.705 1.84299 19.4767 1.68899 19.02 1.68899H18.407L18.129 2.78499ZM24.654 4.58499H22.747L22.053 5.75799H20.763L23.851 0.812988H25.351L25.943 5.76299H24.743L24.643 4.58999L24.654 4.58499ZM24.593 3.70799L24.493 2.52799C24.466 2.23299 24.452 1.94999 24.452 1.67499V1.55799C24.3219 1.85134 24.1753 2.13713 24.013 2.41399L23.255 3.71399H24.598L24.593 3.70799ZM31.679 5.75799H30.302L28.866 2.03299H28.841L28.825 2.14099C28.739 2.62699 28.6503 3.06032 28.559 3.44099L27.974 5.76099H26.865L28.111 0.830988H29.55L30.921 4.46199H30.937C30.969 4.29199 31.022 4.04699 31.094 3.72999C31.166 3.41299 31.408 2.44599 31.819 0.829988H32.919L31.673 5.75999L31.679 5.75799ZM37.692 5.75799H36.329L35.479 3.75799L34.979 3.99399L34.54 5.75399H33.302L34.548 0.823988H35.782L35.169 3.19099L35.806 2.49999L37.455 0.824988H38.911L36.511 3.18499L37.684 5.75399L37.692 5.75799ZM13.671 1.30799C13.6697 1.17711 13.6171 1.05196 13.5246 0.95941C13.432 0.86686 13.3069 0.814291 13.176 0.812988H2.287C2.15612 0.814291 2.03097 0.86686 1.93842 0.95941C1.84587 1.05196 1.7933 1.17711 1.792 1.30799C1.7933 1.43887 1.84587 1.56402 1.93842 1.65657C2.03097 1.74912 2.15612 1.80169 2.287 1.80299H13.176C13.3069 1.80169 13.432 1.74912 13.5246 1.65657C13.6171 1.56402 13.6697 1.43887 13.671 1.30799ZM10.701 3.28799C10.6997 3.15642 10.6466 3.03068 10.5532 2.93801C10.4597 2.84535 10.3336 2.79324 10.202 2.79299H2.287C2.15612 2.79429 2.03097 2.84686 1.93842 2.93941C1.84587 3.03196 1.7933 3.15711 1.792 3.28799C1.7933 3.41887 1.84587 3.54402 1.93842 3.63657C2.03097 3.72912 2.15612 3.78169 2.287 3.78299H10.202C10.3329 3.78169 10.458 3.72912 10.5506 3.63657C10.6431 3.54402 10.6957 3.41887 10.697 3.28799H10.701ZM7.731 5.26799C7.7297 5.13711 7.67713 5.01196 7.58458 4.91941C7.49203 4.82686 7.36688 4.77429 7.236 4.77299H2.287C2.15612 4.77429 2.03097 4.82686 1.93842 4.91941C1.84587 5.01196 1.7933 5.13711 1.792 5.26799C1.7933 5.39887 1.84587 5.52402 1.93842 5.61657C2.03097 5.70912 2.15612 5.76169 2.287 5.76299H7.237C7.36788 5.76169 7.49303 5.70912 7.58558 5.61657C7.67813 5.52402 7.7307 5.39887 7.732 5.26799H7.731Z" fill="#878787"/>
</svg>
