<svg width="204" height="27" viewBox="0 0 204 27" fill="none" xmlns="http://www.w3.org/2000/svg">
<path d="M26.7803 13.6292L14.0398 25.9806H18.0277L26.7803 17.4953V13.6292Z" fill="#00B2A9"/>
<path d="M26.7803 8.44763L8.69507 25.9806H12.683L26.7803 12.3138V8.44763Z" fill="#00B2A9"/>
<path d="M25.4752 3.21591L14.9961 13.375L13.7776 14.5563L3.2993 24.7154C2.51649 24.1965 1.84017 23.5409 1.30493 22.782L23.4808 1.28323C24.2636 1.8019 24.9399 2.45729 25.4752 3.21591Z" fill="#00B2A9"/>
<path d="M8.75256 0.0180359L0 8.50332V12.3695L12.7405 0.0180359H8.75256Z" fill="#00B2A9"/>
<path d="M26.7804 7.13773L19.0408 14.6418L15.0829 18.4781L7.34083 25.9782C6.2322 25.951 5.14356 25.686 4.15308 25.2025L25.9778 4.04419C26.4779 5.00519 26.752 6.06172 26.7804 7.13773Z" fill="#00B2A9"/>
<path d="M14.0973 0.0180359L0 13.6849V17.551L18.0852 0.0180359H14.0973Z" fill="#00B2A9"/>
<path d="M22.6274 0.796125L0.802601 21.9544C0.302987 20.9944 0.0288909 19.939 0 18.864L19.4396 0.0203857C20.5482 0.047663 21.6369 0.312584 22.6274 0.796125Z" fill="#00B2A9"/>
<path d="M26.7803 25.9806V18.8107L19.3845 25.9806H26.7803Z" fill="#00B2A9"/>
<path d="M0 7.18872L7.39655 0.0180359H0V7.18872Z" fill="#00B2A9"/>
<path d="M53.4199 24.9703V1.90208C53.4199 1.62936 53.5317 1.36781 53.7306 1.17496C53.9295 0.982118 54.1993 0.873779 54.4806 0.873779H57.5923C57.8736 0.873779 58.1434 0.982118 58.3423 1.17496C58.5413 1.36781 58.653 1.62936 58.653 1.90208V24.9703C58.653 25.2431 58.5413 25.5046 58.3423 25.6975C58.1434 25.8903 57.8736 25.9986 57.5923 25.9986H54.4806C54.1993 25.9986 53.9295 25.8903 53.7306 25.6975C53.5317 25.5046 53.4199 25.2431 53.4199 24.9703Z" fill="#00264F"/>
<path d="M62.0793 24.4072L69.4823 13.448C69.5946 13.281 69.6544 13.086 69.6544 12.8868C69.6544 12.6875 69.5946 12.4925 69.4823 12.3255L62.8949 2.46134C62.7911 2.30611 62.7324 2.12661 62.7251 1.94177C62.7177 1.75693 62.7619 1.57358 62.853 1.41106C62.9441 1.24853 63.0788 1.11284 63.2428 1.01828C63.4068 0.923722 63.594 0.873802 63.7848 0.873779H67.3634C67.5434 0.873812 67.7204 0.918252 67.8778 1.00292C68.0352 1.08758 68.1678 1.20969 68.2631 1.35773L72.2397 7.53384C72.3354 7.68264 72.4688 7.80523 72.6271 7.88997C72.7855 7.97471 72.9636 8.01879 73.1444 8.018C73.3253 8.01721 73.503 7.9716 73.6606 7.88548C73.8181 7.79937 73.9504 7.67562 74.0447 7.526L77.9283 1.36558C78.0231 1.21545 78.156 1.0914 78.3144 1.0053C78.4727 0.919193 78.6512 0.873911 78.8328 0.873779H82.3636C82.5536 0.874344 82.74 0.924403 82.9033 1.01872C83.0666 1.11304 83.2007 1.24815 83.2917 1.40992C83.3826 1.5717 83.4271 1.7542 83.4204 1.93833C83.4137 2.12247 83.3561 2.30147 83.2536 2.45663L76.6192 12.5114C76.508 12.6795 76.4497 12.8752 76.4514 13.0748C76.4532 13.2744 76.5148 13.4692 76.6289 13.6354L84.0076 24.4017C84.1137 24.5566 84.1744 24.7365 84.1834 24.9222C84.1924 25.1079 84.1493 25.2925 84.0586 25.4564C83.968 25.6202 83.8332 25.7572 83.6687 25.8527C83.5041 25.9481 83.3159 25.9986 83.1241 25.9986H79.37C79.1929 25.9984 79.0187 25.9553 78.8633 25.8731C78.7078 25.7909 78.5761 25.6722 78.48 25.528L73.9387 18.6601C73.8427 18.5152 73.7106 18.396 73.5547 18.3134C73.3988 18.2309 73.224 18.1876 73.0463 18.1876C72.8686 18.1876 72.6938 18.2309 72.5379 18.3134C72.382 18.396 72.2499 18.5152 72.1539 18.6601L67.598 25.5296C67.5019 25.6737 67.3701 25.7923 67.2147 25.8745C67.0592 25.9566 66.8851 25.9999 66.708 26.0002H62.9669C62.7754 26.0004 62.5874 25.9503 62.4229 25.8553C62.2584 25.7603 62.1235 25.6239 62.0325 25.4606C61.9415 25.2972 61.8978 25.1131 61.906 24.9276C61.9143 24.7421 61.9741 24.5623 62.0793 24.4072Z" fill="#00264F"/>
<path d="M131.051 25.9986H127.652C127.438 25.9987 127.229 25.9357 127.052 25.8181C126.876 25.7005 126.74 25.5337 126.663 25.3398L124.921 20.9512C124.844 20.7571 124.708 20.5901 124.531 20.4724C124.355 20.3546 124.145 20.2916 123.931 20.2916H115.05C114.833 20.2917 114.62 20.3567 114.442 20.4778C114.264 20.5989 114.128 20.7702 114.054 20.9685L112.422 25.3217C112.348 25.52 112.212 25.6913 112.034 25.8124C111.856 25.9335 111.643 25.9985 111.426 25.9986H108.165C107.993 25.9987 107.823 25.9579 107.67 25.8799C107.517 25.8018 107.387 25.6889 107.289 25.5508C107.192 25.4127 107.131 25.2536 107.111 25.0874C107.091 24.9212 107.114 24.7529 107.176 24.597L116.444 1.52873C116.522 1.33572 116.658 1.16992 116.834 1.05306C117.011 0.936194 117.219 0.873706 117.433 0.873779H121.523C121.735 0.873703 121.942 0.935247 122.118 1.05046C122.293 1.16567 122.429 1.32926 122.508 1.5201L132.035 24.5883C132.1 24.7444 132.124 24.9133 132.105 25.0804C132.086 25.2474 132.026 25.4076 131.929 25.5467C131.832 25.6859 131.701 25.7998 131.548 25.8786C131.395 25.9574 131.224 25.9986 131.051 25.9986ZM122.453 14.6724L120.417 9.3575C120.073 8.46097 118.763 8.46489 118.426 9.36377L116.431 14.6786C116.372 14.834 116.353 15.0007 116.375 15.1646C116.398 15.3286 116.46 15.4849 116.558 15.6203C116.656 15.7557 116.786 15.8663 116.937 15.9425C117.089 16.0188 117.257 16.0585 117.427 16.0583H121.458C121.629 16.0583 121.798 16.0182 121.949 15.9414C122.101 15.8646 122.231 15.7533 122.329 15.6172C122.427 15.4811 122.489 15.324 122.51 15.1595C122.532 14.995 122.512 14.8279 122.453 14.6724Z" fill="#00264F"/>
<path d="M167.373 24.9703V6.15258C167.373 5.87985 167.261 5.6183 167.062 5.42545C166.864 5.23261 166.594 5.12427 166.312 5.12427H160.744C160.462 5.12427 160.192 5.01593 159.994 4.82309C159.795 4.63024 159.683 4.36869 159.683 4.09596V1.89974C159.683 1.62701 159.795 1.36546 159.994 1.17261C160.192 0.979768 160.462 0.871429 160.744 0.871429H179.217C179.498 0.871429 179.768 0.979768 179.967 1.17261C180.166 1.36546 180.278 1.62701 180.278 1.89974V4.09596C180.278 4.36869 180.166 4.63024 179.967 4.82309C179.768 5.01593 179.498 5.12427 179.217 5.12427H173.667C173.386 5.12427 173.116 5.23261 172.917 5.42545C172.718 5.6183 172.606 5.87985 172.606 6.15258V24.9703C172.606 25.2431 172.494 25.5046 172.296 25.6975C172.097 25.8903 171.827 25.9986 171.545 25.9986H168.434C168.152 25.9986 167.883 25.8903 167.684 25.6975C167.485 25.5046 167.373 25.2431 167.373 24.9703Z" fill="#00264F"/>
<path d="M183.449 17.2726L186.489 16.9863C186.738 16.9631 186.988 17.0263 187.194 17.1648C187.4 17.3032 187.549 17.5078 187.614 17.7424C187.958 18.9749 188.515 19.9104 189.285 20.5489C190.222 21.3254 191.486 21.7139 193.077 21.7144C194.762 21.7144 196.032 21.3688 196.886 20.6775C197.741 19.9862 198.168 19.1778 198.169 18.2522C198.183 17.7 197.992 17.1613 197.629 16.7353C197.27 16.3169 196.642 15.9543 195.746 15.6473C195.133 15.4418 193.737 15.0758 191.557 14.5492C188.752 13.8757 186.784 13.0474 185.651 12.0644C184.059 10.6823 183.264 8.99722 183.264 7.00911C183.264 5.73093 183.655 4.48141 184.388 3.41906C185.135 2.30526 186.214 1.45683 187.624 0.873786C189.034 0.29074 190.733 -0.000522209 192.721 7.02838e-07C195.974 7.02838e-07 198.422 0.69129 200.066 2.07387C201.432 3.22427 202.259 4.69287 202.548 6.47966C202.569 6.62216 202.56 6.76748 202.52 6.90619C202.48 7.04491 202.41 7.17393 202.315 7.28487C202.221 7.39581 202.103 7.4862 201.97 7.55018C201.837 7.61415 201.691 7.65028 201.543 7.65621L198.306 7.79348C198.067 7.80299 197.832 7.73405 197.639 7.59783C197.445 7.4616 197.305 7.26606 197.24 7.04284C196.978 6.15389 196.558 5.48848 195.981 5.04662C195.245 4.48135 194.139 4.19846 192.664 4.19794C191.144 4.19794 189.954 4.5007 189.093 5.10623C188.545 5.4958 188.271 6.0161 188.271 6.66712C188.271 7.26063 188.531 7.7689 189.049 8.19193C189.709 8.72949 191.312 9.28926 193.857 9.87126C196.403 10.4533 198.285 11.0562 199.505 11.68C200.681 12.2634 201.671 13.146 202.37 14.2331C203.059 15.3129 203.404 16.6464 203.404 18.2334C203.404 19.6695 202.975 21.0749 202.166 22.2784C201.341 23.5334 200.174 24.4673 198.666 25.0801C197.157 25.693 195.277 25.9986 193.026 25.9971C189.751 25.9971 187.234 25.2629 185.478 23.7946C183.963 22.5286 182.975 20.7627 182.512 18.497C182.484 18.3561 182.486 18.2111 182.519 18.0711C182.551 17.9311 182.614 17.7993 182.702 17.684C182.79 17.5687 182.902 17.4726 183.031 17.4018C183.159 17.3309 183.302 17.2869 183.449 17.2726Z" fill="#00264F"/>
<path d="M37.7926 5.12427H48.2045C48.3439 5.12437 48.4818 5.09784 48.6106 5.0462C48.7393 4.99456 48.8563 4.91882 48.9548 4.82331C49.0533 4.72781 49.1314 4.6144 49.1847 4.4896C49.238 4.36479 49.2653 4.23103 49.2652 4.09596V1.89973C49.2648 1.62735 49.1528 1.36628 48.9539 1.1739C48.755 0.981521 48.4855 0.873571 48.2045 0.87378H32.5603C32.4209 0.873677 32.2829 0.900198 32.1541 0.951829C32.0253 1.00346 31.9083 1.07919 31.8097 1.17469C31.7112 1.27018 31.633 1.38358 31.5796 1.50839C31.5262 1.6332 31.4988 1.76698 31.4988 1.90209V5.12427H37.7926Z" fill="#00264F"/>
<path d="M46.4901 11.0714H31.4988V24.9703C31.4988 25.1054 31.5262 25.2392 31.5796 25.364C31.633 25.4889 31.7112 25.6022 31.8097 25.6977C31.9083 25.7932 32.0253 25.869 32.1541 25.9206C32.2829 25.9722 32.4209 25.9988 32.5603 25.9986H35.6712C35.9525 25.9986 36.2223 25.8903 36.4212 25.6975C36.6201 25.5046 36.7319 25.2431 36.7319 24.9703V16.3501C36.7319 16.0774 36.8436 15.8159 37.0425 15.623C37.2415 15.4302 37.5112 15.3218 37.7926 15.3218H46.4901C46.6294 15.3218 46.7673 15.2952 46.896 15.2436C47.0247 15.1919 47.1416 15.1161 47.2401 15.0207C47.3386 14.9252 47.4168 14.8118 47.4701 14.687C47.5234 14.5623 47.5508 14.4286 47.5508 14.2935V12.0973C47.5502 11.825 47.4381 11.564 47.2393 11.3717C47.0404 11.1794 46.771 11.0713 46.4901 11.0714Z" fill="#00264F"/>
<path d="M106.136 3.71084C105.134 2.44801 103.891 1.62808 102.406 1.25106C101.439 1.00006 99.3652 0.874303 96.1834 0.87378H88.8467C88.7073 0.873574 88.5692 0.90002 88.4403 0.951605C88.3115 1.00319 88.1943 1.0789 88.0957 1.17441C87.997 1.26992 87.9187 1.38335 87.8653 1.50821C87.8119 1.63307 87.7844 1.76692 87.7844 1.90209V5.12427H95.5451C97.4329 5.12427 98.688 5.18153 99.3105 5.29604C100.122 5.42434 100.864 5.81726 101.414 6.40985C101.968 7.00387 102.245 7.75791 102.245 8.67196C102.26 9.36681 102.053 10.0491 101.653 10.6258C101.252 11.1906 100.681 11.6215 100.018 11.8596C99.3229 12.1211 97.944 12.2518 95.8808 12.2518H87.7844V24.9703C87.7844 25.2431 87.8962 25.5046 88.0951 25.6975C88.294 25.8903 88.5638 25.9986 88.8451 25.9986H91.9568C92.2381 25.9986 92.5079 25.8903 92.7068 25.6975C92.9058 25.5046 93.0175 25.2431 93.0175 24.9703V17.5494C93.0175 17.2767 93.1293 17.0152 93.3282 16.8223C93.5271 16.6295 93.7969 16.5211 94.0782 16.5211H96.4294C98.7983 16.5211 100.607 16.4011 101.857 16.1611C102.774 15.9671 103.678 15.5702 104.57 14.9704C105.462 14.3707 106.196 13.5452 106.771 12.4942C107.348 11.4431 107.636 10.1463 107.637 8.60372C107.639 6.60463 107.138 4.97367 106.136 3.71084Z" fill="#00264F"/>
<path d="M157.695 24.4252L155.547 21.0995C154.9 20.0845 154.32 19.2306 153.808 18.5377C153.418 18.0059 153.067 17.5685 152.756 17.2255L151.256 15.3509C151.262 15.1401 151.334 14.9363 151.463 14.7665C151.592 14.5968 151.771 14.4693 151.977 14.401C153.184 13.9868 154.155 13.3839 154.89 12.5922C156.034 11.3613 156.607 9.8046 156.607 7.92212C156.607 6.43653 156.229 5.1167 155.474 3.96263C154.719 2.80857 153.714 2.0059 152.46 1.55463C151.205 1.10388 149.192 0.878239 146.423 0.877716H136.471C136.332 0.877613 136.194 0.904141 136.065 0.955781C135.937 1.00742 135.82 1.08316 135.721 1.17867C135.623 1.27418 135.544 1.38758 135.491 1.51238C135.438 1.63719 135.411 1.77095 135.411 1.90602V24.9743C135.411 25.1093 135.438 25.2431 135.491 25.3679C135.544 25.4927 135.623 25.6061 135.721 25.7016C135.82 25.7971 135.937 25.8729 136.065 25.9245C136.194 25.9761 136.332 26.0027 136.471 26.0026H139.582C139.864 26.0026 140.133 25.8942 140.332 25.7014C140.531 25.5085 140.643 25.247 140.643 24.9743V16.5384C140.643 16.2657 140.755 16.0041 140.954 15.8113C141.153 15.6184 141.422 15.5101 141.704 15.5101C142.906 15.5101 143.784 15.6045 144.338 15.7932C144.892 15.982 145.416 16.3303 145.911 16.838C146.406 17.3473 147.325 18.5785 148.669 20.5316L152.137 25.5437C152.234 25.6837 152.365 25.7984 152.519 25.8777C152.672 25.957 152.844 25.9985 153.018 25.9986H156.799C156.988 25.9981 157.173 25.9486 157.336 25.8553C157.499 25.7619 157.633 25.628 157.724 25.4675C157.815 25.307 157.861 25.1258 157.856 24.9425C157.851 24.7593 157.795 24.5807 157.695 24.4252ZM144.515 11.4996H141.704C141.423 11.4996 141.153 11.3913 140.954 11.1984C140.755 11.0056 140.644 10.744 140.644 10.4713V6.15259C140.644 5.87986 140.755 5.61831 140.954 5.42547C141.153 5.23262 141.423 5.12428 141.704 5.12428H144.727C146.849 5.12428 148.121 5.15278 148.546 5.20978C149.395 5.34469 150.052 5.6736 150.517 6.19651C150.982 6.71942 151.215 7.40182 151.216 8.24371C151.216 8.99723 151.039 9.62472 150.686 10.1262C150.333 10.6292 149.816 11.0033 149.218 11.189C148.593 11.3961 147.025 11.4996 144.515 11.4996Z" fill="#00264F"/>
</svg>
