<svg width="173" height="102" viewBox="0 0 173 102" fill="none" xmlns="http://www.w3.org/2000/svg">
<path d="M106.232 21.2646L86.9949 40.5617H93.0168L106.232 27.3038V21.2646Z" fill="black"/>
<path d="M106.232 13.1699L78.9253 40.5618H84.9472L106.232 19.2091V13.1699Z" fill="black"/>
<path d="M104.262 4.99721L88.4337 20.8749L86.5964 22.7178L70.7678 38.5955C69.5859 37.7856 68.565 36.7616 67.7576 35.5759L101.251 1.9762C102.433 2.78659 103.454 3.81112 104.262 4.99721Z" fill="black"/>
<path d="M79.0131 0L65.7976 13.2565V19.2971L85.0336 0H79.0131Z" fill="black"/>
<path d="M106.23 11.1186L94.5476 22.8411L88.5681 28.8349L76.8818 40.5575C75.2081 40.5151 73.5647 40.1011 72.0696 39.3454L105.02 6.29004C105.774 7.79018 106.187 9.43919 106.23 11.1186Z" fill="black"/>
<path d="M87.0828 0L65.7976 21.3512V27.3919L93.1033 0H87.0828Z" fill="black"/>
<path d="M99.9615 1.21634L67.0084 34.2703C66.255 32.7706 65.8424 31.122 65.8 29.4432L95.1479 0C96.8224 0.0430814 98.4665 0.458524 99.9615 1.21634Z" fill="black"/>
<path d="M106.233 40.5618V29.3595L95.0649 40.5618H106.233Z" fill="black"/>
<path d="M65.7976 11.2023L76.9652 0H65.7976V11.2023Z" fill="black"/>
<path d="M21.9368 79.8988V56.0128C21.9368 55.7304 22.0486 55.4596 22.2476 55.2599C22.4467 55.0603 22.7166 54.9481 22.9981 54.9481H26.1073C26.3889 54.9481 26.659 55.0602 26.8583 55.2599C27.0576 55.4595 27.1697 55.7303 27.1701 56.0128V79.8988C27.1701 80.1815 27.0581 80.4527 26.8588 80.6526C26.6595 80.8525 26.3892 80.9648 26.1073 80.9648H22.9981C22.7165 80.9645 22.4466 80.852 22.2475 80.6521C22.0485 80.4522 21.9368 80.1813 21.9368 79.8988Z" fill="black"/>
<path d="M30.6029 79.3163L38.0112 67.9751C38.1235 67.8022 38.1834 67.6003 38.1834 67.3939C38.1834 67.1875 38.1235 66.9855 38.0112 66.8126L31.4169 56.597C31.3133 56.4363 31.2547 56.2506 31.2474 56.0593C31.2401 55.868 31.2844 55.6783 31.3755 55.5102C31.4666 55.342 31.6013 55.2016 31.7652 55.1037C31.9292 55.0058 32.1165 54.9541 32.3073 54.954H35.897C36.0772 54.9541 36.2544 55.0001 36.4121 55.0876C36.5698 55.1751 36.7028 55.3013 36.7986 55.4544L40.7784 61.8509C40.8742 62.0049 41.0077 62.1318 41.1662 62.2195C41.3247 62.3072 41.5029 62.3528 41.6838 62.3519C41.8648 62.3511 42.0426 62.3038 42.2003 62.2146C42.3579 62.1254 42.4902 61.9973 42.5846 61.8423L46.4725 55.4629C46.5672 55.3073 46.7004 55.1787 46.859 55.0896C47.0177 55.0004 47.1965 54.9537 47.3784 54.954H50.9115C51.102 54.9538 51.2891 55.0051 51.453 55.1025C51.617 55.1998 51.7517 55.3397 51.8432 55.5073C51.9348 55.6749 51.9796 55.8641 51.9731 56.0551C51.9665 56.2461 51.9089 56.4318 51.8061 56.5928L45.1638 67.004C45.0528 67.1781 44.9946 67.3808 44.9964 67.5874C44.9981 67.7941 45.0597 67.9957 45.1737 68.1679L52.558 79.3163C52.6643 79.4767 52.7253 79.6629 52.7345 79.8553C52.7436 80.0477 52.7006 80.2389 52.61 80.4087C52.5193 80.5785 52.3845 80.7204 52.2198 80.8194C52.0551 80.9183 51.8667 80.9706 51.6747 80.9707H47.9097C47.7318 80.9705 47.5568 80.9254 47.4008 80.8398C47.2447 80.7541 47.1126 80.6304 47.0166 80.4802L42.4673 73.3636C42.371 73.2135 42.2387 73.09 42.0826 73.0045C41.9264 72.919 41.7513 72.8742 41.5734 72.8742C41.3954 72.8742 41.2203 72.919 41.0642 73.0045C40.908 73.09 40.7757 73.2135 40.6795 73.3636L36.1203 80.4774C36.0242 80.6274 35.892 80.7508 35.7359 80.8363C35.5799 80.9217 35.4049 80.9665 35.2271 80.9665H31.4904C31.2987 80.9667 31.1106 80.9148 30.9459 80.8163C30.7813 80.7179 30.6463 80.5765 30.5553 80.4073C30.4642 80.2381 30.4206 80.0473 30.429 79.8552C30.4374 79.6631 30.4975 79.4769 30.6029 79.3163Z" fill="black"/>
<path d="M99.6255 80.9649H96.2336C96.0192 80.9645 95.8099 80.8991 95.6333 80.7771C95.4567 80.6551 95.3211 80.4823 95.2443 80.2815L93.5032 75.7451C93.4262 75.5444 93.2906 75.3717 93.114 75.2498C92.9374 75.1278 92.7283 75.0623 92.5139 75.0618H83.6089C83.39 75.0623 83.1767 75.1307 82.998 75.2576C82.8194 75.3845 82.6843 75.5637 82.6111 75.7706L80.9802 80.2631C80.9071 80.47 80.7719 80.6492 80.5933 80.7761C80.4147 80.903 80.2013 80.9714 79.9825 80.9719H76.7221C76.5493 80.972 76.3792 80.9298 76.2264 80.849C76.0736 80.7682 75.9428 80.6512 75.8453 80.5081C75.7478 80.3651 75.6866 80.2003 75.667 80.0282C75.6474 79.856 75.67 79.6817 75.7328 79.5203L85.008 55.6272C85.0855 55.4272 85.2214 55.2553 85.398 55.1341C85.5745 55.013 85.7834 54.9481 85.9973 54.9481H90.0958C90.3085 54.9475 90.5165 55.011 90.6929 55.1303C90.8693 55.2496 91.0059 55.4192 91.0851 55.6173L100.611 79.5033C100.675 79.6648 100.699 79.8399 100.681 80.0131C100.663 80.1862 100.602 80.3522 100.505 80.4965C100.408 80.6407 100.277 80.7589 100.123 80.8406C99.97 80.9222 99.7991 80.9649 99.6255 80.9649ZM91.0215 69.2366L88.9836 63.7333C88.9087 63.5287 88.773 63.352 88.5948 63.2272C88.4166 63.1024 88.2045 63.0355 87.9872 63.0355C87.7699 63.0355 87.5578 63.1024 87.3796 63.2272C87.2014 63.352 87.0657 63.5287 86.9909 63.7333L84.9939 69.2423C84.9355 69.4032 84.9166 69.5758 84.9389 69.7456C84.9612 69.9153 85.0239 70.0772 85.1218 70.2174C85.2198 70.3576 85.35 70.4721 85.5014 70.5511C85.6528 70.6302 85.821 70.6714 85.9917 70.6713H90.0251C90.1964 70.6715 90.3651 70.6301 90.517 70.5507C90.6688 70.4713 90.7993 70.3562 90.8972 70.2152C90.995 70.0743 91.0575 69.9116 91.0791 69.7412C91.1008 69.5708 91.081 69.3977 91.0215 69.2366Z" fill="black"/>
<path d="M135.975 79.8988V60.4146C135.975 60.1322 135.863 59.8614 135.664 59.6618C135.465 59.4621 135.195 59.3499 134.913 59.3499H129.341C129.059 59.3499 128.789 59.2378 128.59 59.0381C128.391 58.8385 128.279 58.5677 128.279 58.2853V56.0171C128.279 55.7347 128.391 55.4639 128.59 55.2642C128.789 55.0646 129.059 54.9524 129.341 54.9524H147.828C148.109 54.9524 148.379 55.0646 148.578 55.2642C148.777 55.4639 148.889 55.7347 148.889 56.0171V58.2853C148.889 58.5677 148.777 58.8385 148.578 59.0381C148.379 59.2378 148.109 59.3499 147.828 59.3499H142.273C141.992 59.3499 141.722 59.4621 141.522 59.6617C141.323 59.8613 141.211 60.1321 141.211 60.4146V79.8988C141.211 80.1813 141.099 80.4522 140.9 80.6521C140.701 80.852 140.431 80.9645 140.149 80.9649H137.04C136.9 80.9652 136.762 80.938 136.633 80.8845C136.503 80.8311 136.386 80.7527 136.287 80.6536C136.188 80.5546 136.109 80.437 136.056 80.3074C136.002 80.1779 135.975 80.039 135.975 79.8988Z" fill="black"/>
<path d="M152.068 71.9288L155.109 71.6325C155.359 71.607 155.611 71.6718 155.818 71.8152C156.025 71.9585 156.174 72.1712 156.24 72.415C156.584 73.6909 157.142 74.6596 157.912 75.3212C158.854 76.1255 160.119 76.5276 161.706 76.5276C163.394 76.5276 164.666 76.1699 165.522 75.4545C166.378 74.739 166.806 73.9017 166.804 72.9424C166.819 72.3709 166.627 71.8132 166.265 71.3716C165.904 70.9407 165.276 70.5655 164.38 70.246C163.767 70.0324 162.369 69.6544 160.188 69.1119C157.382 68.4144 155.412 67.5567 154.279 66.5388C152.687 65.1089 151.891 63.3643 151.891 61.3049C151.891 59.9812 152.282 58.6871 153.015 57.5864C153.768 56.4324 154.847 55.5539 156.251 54.951C157.655 54.348 159.356 54.0465 161.356 54.0465C164.61 54.0465 167.06 54.762 168.705 56.1928C170.059 57.359 170.942 58.9814 171.188 60.7548C171.21 60.9024 171.2 61.053 171.161 61.1967C171.121 61.3404 171.051 61.4742 170.956 61.5891C170.862 61.7041 170.744 61.7978 170.61 61.8641C170.477 61.9305 170.332 61.9679 170.183 61.974L166.945 62.1158C166.706 62.1252 166.471 62.0537 166.277 61.9128C166.084 61.7718 165.943 61.5697 165.878 61.3389C165.615 60.4184 165.196 59.7289 164.619 59.2706C163.881 58.6855 162.775 58.393 161.301 58.393C159.78 58.393 158.589 58.7063 157.728 59.3329C157.465 59.5106 157.251 59.7515 157.106 60.0336C156.961 60.3158 156.888 60.6301 156.895 60.9476C156.896 61.2531 156.967 61.5543 157.102 61.828C157.237 62.1018 157.433 62.3409 157.674 62.5269C158.334 63.0845 159.938 63.6643 162.486 64.2664C165.035 64.8684 166.919 65.4926 168.139 66.1391C169.316 66.7434 170.306 67.6573 171.004 68.783C171.695 69.901 172.04 71.2823 172.04 72.9268C172.041 74.4136 171.611 75.8686 170.802 77.1145C169.965 78.4248 168.74 79.4395 167.298 80.0165C165.791 80.6487 163.91 80.9653 161.655 80.9663C158.376 80.9663 155.859 80.2059 154.101 78.6853C152.584 77.3744 151.595 75.5457 151.134 73.199C151.105 73.0533 151.106 72.9031 151.139 72.7581C151.171 72.6131 151.233 72.4764 151.321 72.3569C151.409 72.2373 151.521 72.1375 151.649 72.0637C151.778 71.99 151.92 71.9441 152.068 71.9288Z" fill="black"/>
<path d="M6.29752 59.3499H16.7175C16.9992 59.3499 17.2693 59.2378 17.4685 59.0382C17.6678 58.8386 17.7799 58.5678 17.7803 58.2853V56.0171C17.7799 55.7346 17.6678 55.4638 17.4685 55.2641C17.2693 55.0645 16.9992 54.9524 16.7175 54.9524H1.06136C0.780605 54.9524 0.511284 55.064 0.312361 55.2627C0.113438 55.4615 0.00112154 55.7312 0 56.0128V59.3499H6.29752Z" fill="black"/>
<path d="M15.0018 65.507H0V79.899C-2.49e-07 80.1814 0.111777 80.4524 0.31078 80.6523C0.509784 80.8522 0.779742 80.9647 1.06136 80.965H4.17055C4.45217 80.9647 4.72213 80.8522 4.92113 80.6523C5.12014 80.4524 5.23191 80.1814 5.23191 79.899V70.9678C5.23191 70.6854 5.34373 70.4146 5.54278 70.2149C5.74182 70.0153 6.01178 69.9031 6.29327 69.9031H14.9976C15.2791 69.9031 15.549 69.7909 15.7481 69.5913C15.9471 69.3916 16.0589 69.1208 16.0589 68.8384V66.5702C16.0582 66.2889 15.9467 66.0194 15.7487 65.8202C15.5507 65.621 15.2822 65.5085 15.0018 65.507Z" fill="black"/>
<path d="M74.6928 57.8855C73.6894 56.5784 72.4453 55.7278 70.9604 55.3337C69.9928 55.0767 67.9153 54.9481 64.7279 54.9481H57.3902C57.1087 54.9481 56.8388 55.0603 56.6397 55.2599C56.4407 55.4596 56.3289 55.7304 56.3289 56.0128V59.3499H64.1018C65.9862 59.3499 67.2421 59.409 67.8696 59.5271C68.6788 59.66 69.4188 60.0649 69.9683 60.6754C70.5242 61.2888 70.8016 62.0695 70.8007 63.0174C70.815 63.7367 70.6083 64.443 70.2085 65.0404C69.8066 65.6242 69.2352 66.0697 68.572 66.3163C67.8748 66.5885 66.4945 66.7245 64.4311 66.7245H56.3289V79.8988C56.3289 80.1813 56.4406 80.4522 56.6396 80.6521C56.8386 80.852 57.1086 80.9645 57.3902 80.9648H60.4994C60.781 80.9645 61.051 80.852 61.25 80.6521C61.449 80.4522 61.5608 80.1813 61.5608 79.8988V72.2151C61.5611 71.9326 61.6733 71.6618 61.8725 71.4622C62.0718 71.2626 62.3419 71.1505 62.6235 71.1505H64.9752C67.3467 71.1505 69.1575 71.0262 70.4078 70.7776C71.385 70.5502 72.3077 70.131 73.1227 69.5443C74.0522 68.8793 74.8084 67.9997 75.3274 66.9797C75.904 65.8929 76.1928 64.5503 76.1937 62.9522C76.1956 60.8815 75.6953 59.1926 74.6928 57.8855Z" fill="black"/>
<path d="M126.289 79.3346L124.14 75.8882C123.49 74.8373 122.909 73.9531 122.399 73.2358C122.007 72.6858 121.656 72.2326 121.347 71.8763L119.845 69.9355C119.851 69.7173 119.924 69.5061 120.053 69.3303C120.182 69.1544 120.361 69.0224 120.567 68.9517C121.774 68.5226 122.746 67.8979 123.484 67.0775C124.629 65.8054 125.201 64.1936 125.201 62.2419C125.227 60.7944 124.835 59.3703 124.071 58.1421C123.373 56.9948 122.311 56.1168 121.055 55.6499C119.798 55.182 117.784 54.9481 115.013 54.9481H105.051C104.769 54.9481 104.499 55.0603 104.3 55.2599C104.101 55.4596 103.99 55.7304 103.99 56.0128V79.8988C103.99 80.1813 104.101 80.4522 104.3 80.6521C104.499 80.852 104.769 80.9645 105.051 80.9649H108.16C108.442 80.9645 108.712 80.852 108.911 80.6521C109.11 80.4522 109.221 80.1813 109.221 79.8988V71.166C109.221 70.8836 109.333 70.6126 109.532 70.4127C109.731 70.2128 110.001 70.1004 110.283 70.1C111.485 70.1 112.364 70.1978 112.919 70.3934C113.523 70.6221 114.063 70.9937 114.493 71.4765C114.988 72.0029 115.909 73.2788 117.253 75.3042L120.724 80.4942C120.821 80.6396 120.952 80.7587 121.106 80.8411C121.26 80.9234 121.432 80.9664 121.606 80.9663H125.385C125.575 80.9669 125.762 80.9164 125.926 80.8201C126.09 80.7237 126.225 80.5849 126.317 80.4183C126.41 80.2516 126.456 80.0632 126.451 79.8726C126.446 79.682 126.39 79.4962 126.289 79.3346ZM113.099 65.9505H110.287C110.006 65.9505 109.736 65.8383 109.537 65.6387C109.337 65.439 109.226 65.1682 109.226 64.8859V60.4146C109.226 60.1322 109.337 59.8614 109.537 59.6618C109.736 59.4621 110.006 59.3499 110.287 59.3499H113.313C115.436 59.3499 116.707 59.3792 117.129 59.4378C117.977 59.5796 118.636 59.9198 119.107 60.4585C119.578 60.9972 119.814 61.7061 119.814 62.585C119.814 63.3657 119.637 64.0164 119.282 64.5371C118.926 65.0587 118.406 65.446 117.806 65.6372C117.181 65.8461 115.612 65.9505 113.099 65.9505Z" fill="black"/>
<path d="M120.381 92.8293H119.92V94.9828H120.424C120.801 94.9828 121.052 94.8882 121.176 94.6992C121.32 94.4509 121.387 94.1651 121.369 93.8784C121.389 93.5977 121.313 93.3183 121.155 93.0859C121.013 92.9149 120.755 92.8293 120.381 92.8293Z" fill="black"/>
<path d="M121.203 96.2755C121.13 96.1716 121.027 96.0925 120.908 96.0487C120.748 95.9963 120.581 95.9723 120.413 95.9778H119.92V98.4885H120.402C120.585 98.497 120.767 98.463 120.935 98.3892C121.057 98.3283 121.158 98.2326 121.226 98.1142C121.296 97.9829 121.337 97.8378 121.346 97.6889C121.361 97.5287 121.369 97.3515 121.369 97.1615C121.37 96.9885 121.359 96.8156 121.336 96.6441C121.318 96.5132 121.273 96.3876 121.203 96.2755Z" fill="black"/>
<path d="M159.452 89.3831H105.465C105.465 91.04 105.791 92.6806 106.423 94.2114C107.055 95.7422 107.981 97.1331 109.149 98.3047C110.317 99.4763 111.704 100.406 113.23 101.04C114.756 101.674 116.392 102 118.043 102H172.03C172.03 98.6539 170.705 95.4447 168.346 93.0785C165.987 90.7124 162.788 89.3831 159.452 89.3831ZM122.425 94.04C122.428 94.2213 122.412 94.4023 122.376 94.5802C122.349 94.7147 122.302 94.8443 122.235 94.9643C122.095 95.1861 121.9 95.3681 121.67 95.4931C121.92 95.606 122.125 95.8003 122.251 96.0446C122.389 96.3562 122.453 96.6961 122.437 97.037V97.4764C122.437 98.1664 122.271 98.6951 121.938 99.0628C121.606 99.4304 121.073 99.6138 120.341 99.6128H118.801V91.7732H120.436C120.749 91.7648 121.061 91.8213 121.352 91.9391C121.589 92.0374 121.801 92.1876 121.972 92.3786C122.132 92.5619 122.251 92.7782 122.319 93.0122C122.388 93.2537 122.423 93.5038 122.422 93.7551L122.425 94.04ZM128.199 97.8493C128.202 98.0885 128.156 98.3258 128.066 98.5472C127.975 98.7685 127.841 98.9694 127.672 99.1379C127.505 99.306 127.307 99.4403 127.09 99.5334C126.867 99.6299 126.626 99.6782 126.383 99.6752C126.143 99.6779 125.906 99.6295 125.686 99.5334C125.253 99.3422 124.906 98.9946 124.715 98.5595C124.619 98.3359 124.571 98.0943 124.574 97.8507V91.7718H125.693V97.7401C125.684 97.8507 125.696 97.9621 125.73 98.0678C125.764 98.1734 125.819 98.2712 125.891 98.3554C126.024 98.4833 126.202 98.5547 126.386 98.5547C126.57 98.5547 126.747 98.4833 126.881 98.3554C126.952 98.2709 127.006 98.1731 127.04 98.0675C127.074 97.9619 127.086 97.8506 127.077 97.7401V91.7718H128.198L128.199 97.8493ZM133.972 94.0216H132.847V93.7693C132.854 93.5341 132.791 93.3023 132.666 93.103C132.599 93.006 132.507 92.9287 132.4 92.8789C132.293 92.8291 132.175 92.8086 132.057 92.8194C131.927 92.8133 131.798 92.8437 131.684 92.9073C131.593 92.9631 131.514 93.038 131.454 93.1271C131.394 93.2269 131.353 93.337 131.334 93.4517C131.311 93.577 131.299 93.7042 131.3 93.8316C131.299 93.9604 131.304 94.0891 131.317 94.2172C131.326 94.3134 131.354 94.4069 131.399 94.4923C131.446 94.5761 131.512 94.6478 131.591 94.7021C131.7 94.7732 131.816 94.8322 131.937 94.8779L132.794 95.2195C133.012 95.2974 133.216 95.4109 133.397 95.5555C133.546 95.6778 133.67 95.8293 133.759 96.0007C133.843 96.1912 133.899 96.3933 133.924 96.6003C133.955 96.8543 133.969 97.11 133.968 97.3658C133.97 97.6753 133.937 97.984 133.869 98.2859C133.813 98.5452 133.705 98.7902 133.551 99.0061C133.392 99.2152 133.185 99.3818 132.946 99.4909C132.66 99.6161 132.349 99.6762 132.036 99.6667C131.777 99.6697 131.519 99.6215 131.279 99.5249C131.053 99.4356 130.847 99.301 130.675 99.1294C130.506 98.9595 130.37 98.7595 130.274 98.5397C130.176 98.3085 130.128 98.0593 130.132 97.8082V97.3829H131.253V97.7344C131.251 97.9346 131.315 98.1299 131.434 98.2902C131.554 98.4556 131.757 98.5382 132.043 98.5382C132.196 98.5459 132.347 98.5178 132.487 98.456C132.591 98.4035 132.677 98.3211 132.734 98.2193C132.796 98.1056 132.831 97.9798 132.839 97.8507C132.85 97.7089 132.854 97.5473 132.854 97.3715C132.856 97.2026 132.849 97.0336 132.833 96.8654C132.824 96.7545 132.794 96.6464 132.746 96.5465C132.694 96.4651 132.625 96.397 132.542 96.348C132.435 96.2848 132.323 96.2294 132.207 96.1821L131.406 95.8518C130.924 95.6533 130.599 95.3911 130.435 95.065C130.258 94.6807 130.174 94.2603 130.188 93.8373C130.186 93.554 130.227 93.2721 130.309 93.0009C130.382 92.7507 130.505 92.5181 130.671 92.3176C130.83 92.1232 131.03 91.9672 131.257 91.8611C131.524 91.7421 131.814 91.684 132.105 91.691C132.368 91.6877 132.628 91.7399 132.869 91.8441C133.091 91.9422 133.294 92.0806 133.466 92.2524C133.626 92.4105 133.754 92.599 133.84 92.8068C133.927 93.0146 133.972 93.2377 133.972 93.4631V94.0216ZM137.056 99.6043H135.937V91.7647H137.056V99.6043ZM143.103 99.6043H142.051L140.338 94.8991H140.316V99.6114H139.193V91.7718H140.268L141.964 96.4954H141.987V91.7718H143.106L143.103 99.6043ZM148.547 92.8223H146.33V95.1245H148.262V96.1807H146.33V98.483H148.547V99.6057H145.211V91.7661H148.547V92.8223ZM153.991 94.0216H152.872V93.7693C152.878 93.5342 152.815 93.3025 152.691 93.103C152.623 93.0061 152.531 92.9289 152.424 92.8791C152.318 92.8293 152.199 92.8087 152.082 92.8194C151.952 92.813 151.822 92.8435 151.709 92.9073C151.617 92.9627 151.538 93.0377 151.478 93.1271C151.418 93.2268 151.377 93.3369 151.357 93.4517C151.335 93.5772 151.324 93.7043 151.324 93.8316C151.323 93.9604 151.329 94.0891 151.341 94.2172C151.35 94.3136 151.378 94.4072 151.423 94.4923C151.47 94.5764 151.536 94.6482 151.616 94.7021C151.724 94.7732 151.839 94.8322 151.96 94.8779L152.817 95.2195C153.035 95.2971 153.239 95.4107 153.42 95.5555C153.57 95.6778 153.694 95.8292 153.784 96.0007C153.867 96.1913 153.923 96.3934 153.947 96.6003C153.979 96.8543 153.993 97.11 153.991 97.3658C153.994 97.6753 153.961 97.9841 153.892 98.2859C153.838 98.5456 153.729 98.7909 153.574 99.0061C153.416 99.2152 153.209 99.3817 152.971 99.4909C152.684 99.6161 152.372 99.6761 152.059 99.6667C151.8 99.6698 151.543 99.6216 151.303 99.5249C151.077 99.4356 150.871 99.301 150.698 99.1294C150.53 98.9594 150.394 98.7594 150.298 98.5397C150.2 98.3085 150.152 98.0593 150.157 97.8082V97.3829H151.276V97.7344C151.275 97.9345 151.338 98.1296 151.457 98.2902C151.579 98.456 151.781 98.5382 152.066 98.5382C152.219 98.546 152.372 98.5179 152.512 98.456C152.615 98.4031 152.701 98.3208 152.759 98.2193C152.821 98.1058 152.856 97.9798 152.862 97.8507C152.873 97.7089 152.879 97.5473 152.879 97.3715C152.881 97.2026 152.874 97.0336 152.858 96.8654C152.848 96.7544 152.818 96.6463 152.769 96.5465C152.718 96.4654 152.649 96.3975 152.567 96.348C152.459 96.2854 152.347 96.23 152.232 96.1821L151.43 95.8518C150.947 95.6533 150.623 95.3911 150.459 95.065C150.282 94.681 150.197 94.2604 150.212 93.8373C150.21 93.5541 150.251 93.2721 150.332 93.0009C150.405 92.7506 150.529 92.518 150.696 92.3176C150.854 92.1229 151.055 91.9668 151.282 91.8611C151.549 91.7419 151.838 91.6838 152.13 91.691C152.392 91.6877 152.652 91.7399 152.893 91.8441C153.116 91.9422 153.318 92.0806 153.491 92.2524C153.651 92.4106 153.778 92.5991 153.864 92.807C153.951 93.0148 153.995 93.2378 153.995 93.4631L153.991 94.0216ZM159.545 94.0216H158.427V93.7693C158.433 93.5342 158.371 93.3025 158.247 93.103C158.179 93.0061 158.087 92.9289 157.98 92.8791C157.873 92.8293 157.755 92.8087 157.637 92.8194C157.507 92.813 157.378 92.8435 157.264 92.9073C157.172 92.9626 157.093 93.0377 157.033 93.1271C156.973 93.2272 156.933 93.3371 156.912 93.4517C156.887 93.5824 156.873 93.7154 156.873 93.8487C156.873 94.0032 156.873 94.1322 156.888 94.2343C156.898 94.3305 156.926 94.424 156.972 94.5093C157.019 94.5934 157.084 94.6653 157.164 94.7191C157.272 94.7903 157.388 94.8492 157.509 94.8949L158.365 95.2365C158.584 95.3144 158.787 95.4279 158.969 95.5725C159.118 95.6948 159.241 95.8463 159.331 96.0177C159.415 96.2082 159.471 96.4103 159.496 96.6173C159.527 96.8713 159.542 97.127 159.54 97.3829C159.542 97.6924 159.509 98.0011 159.441 98.3029C159.385 98.5622 159.277 98.8073 159.123 99.0231C158.965 99.2322 158.757 99.3987 158.519 99.5079C158.232 99.6331 157.921 99.6931 157.608 99.6837C157.348 99.6867 157.091 99.6385 156.85 99.5419C156.624 99.4526 156.419 99.318 156.247 99.1464C156.078 98.9768 155.942 98.7767 155.847 98.5567C155.749 98.3255 155.701 98.0763 155.706 97.8252V97.3999H156.825V97.7515C156.823 97.9515 156.887 98.1466 157.006 98.3072C157.125 98.4726 157.328 98.5553 157.615 98.5553C157.768 98.5627 157.92 98.5346 158.06 98.473C158.164 98.4205 158.249 98.338 158.306 98.2363C158.368 98.1229 158.404 97.9969 158.411 97.8677C158.422 97.7259 158.427 97.5643 158.427 97.3885C158.429 97.2195 158.422 97.0506 158.405 96.8824C158.396 96.7714 158.367 96.6631 158.317 96.5635C158.266 96.4821 158.196 96.4141 158.114 96.365C158.007 96.3021 157.895 96.2467 157.78 96.1991L156.979 95.8688C156.496 95.6703 156.171 95.4081 156.007 95.082C155.83 94.6976 155.746 94.2772 155.761 93.8543C155.759 93.5711 155.799 93.2891 155.881 93.0179C155.953 92.7677 156.077 92.5351 156.243 92.3346C156.402 92.1399 156.603 91.9838 156.83 91.8781C157.097 91.7589 157.387 91.7008 157.678 91.708C157.94 91.7049 158.2 91.757 158.44 91.8611C158.663 91.9589 158.867 92.0973 159.039 92.2694C159.199 92.4276 159.326 92.6161 159.413 92.824C159.499 93.0318 159.544 93.2548 159.544 93.4801L159.545 94.0216Z" fill="black"/>
</svg>
