<svg width="40" height="51" viewBox="0 0 40 51" fill="none" xmlns="http://www.w3.org/2000/svg">
<path d="M36.0417 7.11283H25.2594V3.66952C25.2594 1.63369 23.6005 0 21.5898 0H3.66952C1.63369 0 0 1.65882 0 3.66952V47.0754C0 49.1112 1.65882 50.7449 3.66952 50.7449H21.5647H36.0417C38.0775 50.7449 39.7112 49.0861 39.7112 47.0754V10.7824C39.7364 8.74652 38.0775 7.11283 36.0417 7.11283ZM38.2535 47.0754C38.2535 48.2818 37.2733 49.2872 36.0417 49.2872H21.5647C20.3583 49.2872 19.3529 48.307 19.3529 47.0754V37.4743C20.0567 37.1727 20.5594 36.469 20.5594 35.6647C20.5594 34.584 19.6797 33.7043 18.5989 33.7043C17.5182 33.7043 16.6385 34.584 16.6385 35.6647C16.6385 36.4941 17.1412 37.1979 17.8701 37.4743V47.0754C17.8701 47.9048 18.1465 48.6588 18.6241 49.2872H3.66952C2.4631 49.2872 1.45775 48.307 1.45775 47.0754V3.66952C1.45775 2.4631 2.43797 1.45775 3.66952 1.45775H21.5647C22.7711 1.45775 23.7765 2.43797 23.7765 3.66952V7.11283H21.5647C19.5289 7.11283 17.8952 8.77166 17.8952 10.7824V18.3727C16.7642 18.6995 15.9348 19.7299 15.9348 20.9615C15.9348 22.4444 17.1412 23.6508 18.6241 23.6508C20.107 23.6508 21.3134 22.4444 21.3134 20.9615C21.3134 19.7299 20.484 18.6995 19.3529 18.3727V10.7824C19.3529 9.57594 20.3332 8.57059 21.5647 8.57059H23.7765V23.2738C22.6455 23.6005 21.816 24.631 21.816 25.8626C21.816 27.3455 23.0225 28.5519 24.5054 28.5519C25.9882 28.5519 27.1947 27.3455 27.1947 25.8626C27.1947 24.631 26.3652 23.6005 25.2342 23.2738V8.57059H36.0166C37.223 8.57059 38.2283 9.5508 38.2283 10.7824V47.0754H38.2535ZM18.6241 19.7299C19.3027 19.7299 19.8556 20.2829 19.8556 20.9615C19.8556 21.6401 19.3027 22.1931 18.6241 22.1931C17.9455 22.1931 17.3925 21.6401 17.3925 20.9615C17.3925 20.2829 17.9455 19.7299 18.6241 19.7299ZM24.5054 24.631C25.184 24.631 25.7369 25.184 25.7369 25.8626C25.7369 26.5412 25.184 27.0941 24.5054 27.0941C23.8267 27.0941 23.2738 26.5412 23.2738 25.8626C23.2738 25.184 23.8267 24.631 24.5054 24.631Z" fill="#002B49"/>
</svg>
