<svg width="21" height="20" viewBox="0 0 21 20" fill="none" xmlns="http://www.w3.org/2000/svg">
<path d="M20.8241 12.19V19.878H16.3671V12.712C16.3671 10.912 15.7421 9.68102 14.1111 9.68102C13.6082 9.68367 13.1184 9.84185 12.7089 10.1339C12.2995 10.4259 11.9904 10.8374 11.8241 11.312C11.7099 11.6604 11.6611 12.0269 11.6801 12.393V19.893H7.22407C7.22407 19.893 7.28007 7.74902 7.22407 6.49302H11.6801V8.36802C11.6772 8.38254 11.6772 8.39749 11.6801 8.41202V8.36802C12.0814 7.66611 12.6678 7.08794 13.3753 6.69662C14.0828 6.30529 14.8842 6.11587 15.6921 6.14902C18.6231 6.14902 20.8231 8.06802 20.8231 12.18L20.8241 12.19ZM2.56107 0.0120163C2.23988 -0.0207664 1.91537 0.0137078 1.60823 0.113243C1.30109 0.212778 1.01805 0.375192 0.777134 0.590139C0.536219 0.805087 0.342715 1.06786 0.208946 1.36171C0.0751757 1.65556 0.00407393 1.97404 0.000169987 2.29689C-0.00373395 2.61973 0.059645 2.93985 0.18627 3.23685C0.312895 3.53384 0.499989 3.80121 0.735636 4.02192C0.971283 4.24263 1.25032 4.41184 1.55496 4.51878C1.8596 4.62571 2.18318 4.66802 2.50507 4.64302C2.82654 4.67426 3.15098 4.63818 3.45772 4.53708C3.76447 4.43598 4.04679 4.27209 4.28668 4.05584C4.52657 3.83958 4.71878 3.57572 4.85105 3.28107C4.98332 2.98642 5.05274 2.66745 5.05491 2.34448C5.05707 2.02151 4.99192 1.70164 4.86361 1.40524C4.73529 1.10885 4.54664 0.842438 4.30966 0.622995C4.07268 0.403552 3.79259 0.23589 3.48722 0.130695C3.18186 0.025501 2.85792 -0.0149172 2.53607 0.0120163H2.56107ZM0.305073 19.877H4.75507V6.47702H0.305073V19.877Z" fill="#0A0A08"/>
</svg>
