<svg width="42" height="14" viewBox="0 0 42 14" fill="none" xmlns="http://www.w3.org/2000/svg">
<path fill-rule="evenodd" clip-rule="evenodd" d="M21.6692 4.98196C21.6502 6.79596 23.2862 7.81496 24.5202 8.41296C25.7912 9.02996 26.2202 9.43196 26.2122 9.98396C26.2032 10.835 25.2022 11.199 24.2582 11.218C23.0927 11.2455 21.9398 10.9717 20.9112 10.423L20.3222 13.19C21.4791 13.637 22.7089 13.8652 23.9492 13.863C27.3802 13.863 29.6142 12.171 29.6332 9.54396C29.6422 6.21596 25.0242 6.02896 25.0622 4.54396C25.0712 4.09496 25.5012 3.60896 26.4462 3.48796C27.5493 3.37844 28.6613 3.57243 29.6622 4.04897L30.2322 1.37495C29.2553 1.00513 28.2197 0.81508 27.1752 0.813965C23.9592 0.813965 21.6872 2.53396 21.6692 4.98296V4.98196ZM35.7482 1.04697C35.4503 1.04554 35.1587 1.13284 34.9106 1.29776C34.6625 1.46268 34.4692 1.69773 34.3552 1.97296L29.4552 13.659H32.8772L33.5592 11.78H37.7472L38.1402 13.659H41.1692L38.5332 1.04796L35.7482 1.04697ZM36.2252 4.45895L37.2162 9.19896H34.5042L36.2252 4.45895ZM17.5182 1.04697L14.8182 13.658H18.0812L20.7842 1.04697H17.5182ZM12.6942 1.04697L9.29418 9.63795L7.92018 2.33797C7.86457 1.97871 7.68228 1.6512 7.40627 1.41461C7.13025 1.17803 6.77871 1.04798 6.41518 1.04796H0.859177L0.78418 1.41296C1.89787 1.6318 2.97876 1.9931 4.00018 2.48796C4.21371 2.59163 4.39713 2.74826 4.53297 2.94292C4.66881 3.13757 4.75254 3.36377 4.77618 3.59996L7.37618 13.668H10.8262L16.1172 1.04697H12.6942Z" fill="#878787"/>
</svg>
